<svg xmlns="http://www.w3.org/2000/svg" viewBox="0 0 1600 1000" preserveAspectRatio="xMidYMid slice" role="img" aria-label="civil">
  <defs>
    <radialGradient id="bg" cx="50%" cy="20%" r="90%">
      <stop offset="0%" stop-color="#23262d"/>
      <stop offset="100%" stop-color="#14151a"/>
    </radialGradient>
    <radialGradient id="glow" cx="50%" cy="50%" r="50%">
      <stop offset="0%" stop-color="#f0b90b"/>
      <stop offset="100%" stop-color="#f0b90b" stop-opacity="0"/>
    </radialGradient>
  </defs>
  <rect width="100%" height="100%" fill="url(#bg)"/>
  <circle cx="800" cy="100" r="500" fill="url(#glow)" opacity="0.08"/>
  <g fill="none" stroke="#ece8df" stroke-width="1.5" opacity="0.25">
    <path d="M100 700Q800 400 1500 700"/>
    <path d="M100 750Q800 450 1500 750" opacity="0.5"/>
  </g>
  <g fill="none" stroke="#ece8df" stroke-width="1" opacity="0.18">
    <path d="M300 700V900M500 600V900M700 510V900M900 510V900M1100 600V900M1300 700V900"/>
  </g>
  <g fill="none" stroke="#ece8df" stroke-width="1" opacity="0.30">
    <path d="M0 900H1600"/>
  </g>
  <g fill="none" stroke="#ece8df" stroke-width="0.6" opacity="0.12">
    <path d="M0 900L800 500M1600 900L800 500M0 1000L800 500M1600 1000L800 500"/>
  </g>
  <g fill="#ece8df" opacity="0.40">
    <circle cx="300" cy="700" r="3"/>
    <circle cx="500" cy="600" r="3"/>
    <circle cx="700" cy="510" r="4"/>
    <circle cx="900" cy="510" r="4"/>
    <circle cx="1100" cy="600" r="3"/>
    <circle cx="1300" cy="700" r="3"/>
  </g>

</svg>
